<svg xmlns="http://www.w3.org/2000/svg" viewBox="0 0 64 64">
<rect x="0" y="0" width="64" height="64" rx="14" fill="#141d3d" fill-opacity="1.0"/>
<circle cx="9" cy="12" r="1.3" fill="#ffffff" fill-opacity="0.9"/>
<circle cx="7" cy="49" r="1.0" fill="#ffffff" fill-opacity="0.6"/>
<circle cx="57" cy="52" r="1.2" fill="#ffffff" fill-opacity="0.8"/>
<circle cx="32" cy="33" r="23" fill="#aadcff" fill-opacity="0.18"/>
<circle cx="26.5" cy="21" r="4.2" fill="#e8455f" fill-opacity="1.0"/>
<circle cx="32" cy="19" r="4.8" fill="#e8455f" fill-opacity="1.0"/>
<circle cx="37.5" cy="21" r="4.2" fill="#e8455f" fill-opacity="1.0"/>
<circle cx="32" cy="34" r="13.5" fill="#fdf4e3" fill-opacity="1.0"/>
<circle cx="26.8" cy="32" r="2.1" fill="#22283c" fill-opacity="1.0"/>
<circle cx="37.2" cy="32" r="2.1" fill="#22283c" fill-opacity="1.0"/>
<circle cx="32" cy="46.2" r="2.6" fill="#e8455f" fill-opacity="1.0"/>
<polygon points="27,37.5 37,37.5 32,45.5" fill="#f2a03c" fill-opacity="1.0"/>
<circle cx="32" cy="33" r="23" fill="none" stroke="#c4f0ff" stroke-opacity="0.95" stroke-width="2.6"/>
<path d="M15.56 27.01 A17.5 17.5 0 0 1 24.60 17.14" fill="none" stroke="#ffffff" stroke-opacity="0.8" stroke-width="2.6" stroke-linecap="round"/>
<line x1="46.8" y1="15.4" x2="52" y2="8.5" stroke="#c9d6ec" stroke-opacity="1.0" stroke-width="2.2" stroke-linecap="round"/>
<circle cx="52.8" cy="7.4" r="3.0" fill="#ffd76a" fill-opacity="1.0"/>
<rect x="19" y="54" width="26" height="6" rx="3" fill="#c9d6ec" fill-opacity="1.0"/>
</svg>
